<svg xmlns="http://www.w3.org/2000/svg" version="1.1" xmlns:xlink="http://www.w3.org/1999/xlink" xmlns:svgjs="http://svgjs.dev/svgjs" width="1440" height="560" preserveAspectRatio="none" viewBox="0 0 1440 560"><g mask="url(&quot;#SvgjsMask1002&quot;)" fill="none"><rect width="1440" height="560" x="0" y="0" fill="url(&quot;#SvgjsLinearGradient1003&quot;)"></rect><path d="M1440 0L1395.2 0L1440 270.83z" fill="rgba(255, 255, 255, .1)"></path><path d="M1395.2 0L1440 270.83L1440 350.62L746.94 0z" fill="rgba(255, 255, 255, .075)"></path><path d="M746.94 0L1440 350.62L1440 391.07L371.87000000000006 0z" fill="rgba(255, 255, 255, .05)"></path><path d="M371.8700000000001 0L1440 391.07L1440 429.67L250.66000000000014 0z" fill="rgba(255, 255, 255, .025)"></path><path d="M0 560L535.27 560L0 501.08z" fill="rgba(0, 0, 0, .1)"></path><path d="M0 501.08L535.27 560L804.0899999999999 560L0 438.01z" fill="rgba(0, 0, 0, .075)"></path><path d="M0 438.01L804.0899999999999 560L1150.54 560L0 182.20999999999998z" fill="rgba(0, 0, 0, .05)"></path><path d="M0 182.20999999999998L1150.54 560L1308.45 560L0 138.02999999999997z" fill="rgba(0, 0, 0, .025)"></path></g><defs><mask id="SvgjsMask1002"><rect width="1440" height="560" fill="#ffffff"></rect></mask><linearGradient x1="15.28%" y1="-39.29%" x2="84.72%" y2="139.29%" gradientUnits="userSpaceOnUse" id="SvgjsLinearGradient1003"><stop stop-color="#0e2a47" offset="0"></stop><stop stop-color="#00459e" offset="1"></stop></linearGradient></defs></svg>